<?xml version="1.0" encoding="UTF-8"?>
<svg width="24px" height="24px" viewBox="0 0 24 24" version="1.1" xmlns="http://www.w3.org/2000/svg" xmlns:xlink="http://www.w3.org/1999/xlink">
    <!-- Generator: Sketch 54.1 (76490) - https://sketchapp.com -->
    <title>i_inphieuphancong@</title>
    <desc>Created with Sketch.</desc>
    <g id="i_inphieuphancong" stroke="none" stroke-width="1" fill="none" fill-rule="evenodd">
        <g>
            <g transform="translate(4.000000, 4.000000)" fill="#FFFFFF">
                <path d="M4,12.5 L4,15.5 L12,15.5 L12,12.5 L12,10.5 L4,10.5 L4,12.5 Z M5,11.5 L11,11.5 L11,12.5 L5,12.5 L5,11.5 Z M5,13.5 L11,13.5 L11,14.5 L5,14.5 L5,13.5 Z" id="Shape" fill-rule="nonzero"></path>
                <polygon id="Path" points="12 3.5 12 0.5 4 0.5 4 3.5 4 5.5 12 5.5"></polygon>
                <path d="M14,3.5 L13,3.5 L13,5.5 L13,6.5 L3,6.5 L3,5.5 L3,3.5 L2,3.5 C1,3.5 0,4.5 0,5.5 L0,10.5 C0,11.5 1,12.5 2,12.5 L3,12.5 L3,10.5 L3,9.5 L13,9.5 L13,10.5 L13,12.5 L14,12.5 C15,12.5 16,11.5 16,10.5 L16,5.5 C16,4.5 15,3.5 14,3.5 Z" id="Path"></path>
            </g>
            <rect id="Rectangle-Copy-60" transform="translate(12.000000, 12.000000) rotate(90.000000) translate(-12.000000, -12.000000) " x="0" y="0" width="24" height="24"></rect>
        </g>
    </g>
</svg>