<?xml version="1.0" encoding="UTF-8"?>
<svg width="18px" height="18px" viewBox="0 0 18 18" version="1.1" xmlns="http://www.w3.org/2000/svg" xmlns:xlink="http://www.w3.org/1999/xlink">
    <!-- Generator: Sketch 54.1 (76490) - https://sketchapp.com -->
    <title>i_timkiem@</title>
    <desc>Created with Sketch.</desc>
    <g id="i_timkiem" stroke="none" stroke-width="1" fill="none" fill-rule="evenodd">
        <g>
            <path d="M16.7789152,15.6253704 L13.8177555,12.6650056 C16.0826393,9.84353836 15.8646556,5.67065204 13.2814006,3.10671146 C11.9300213,1.75533216 10.1223269,1 8.19405601,1 C6.26673891,1 4.47839881,1.75525268 3.10671146,3.10671146 C1.75533216,4.45809076 1,6.26578511 1,8.19405601 C1,10.1213731 1.75525268,11.9097132 3.10671146,13.2814006 C4.45809076,14.6327799 6.26578511,15.388112 8.19405601,15.388112 C9.82330979,15.388112 11.412941,14.8315682 12.6852739,13.8186299 L15.6456387,16.7789946 C15.8047608,16.9381167 16.0034737,17.0172863 16.2021825,17.0172863 C16.4210802,17.0172863 16.6197891,16.9381128 16.7587263,16.7789946 C17.0769785,16.4405736 17.0769785,15.9438014 16.7789072,15.6255492 L16.7789152,15.6253704 Z M13.7982821,8.1737877 C13.7982821,9.66410424 13.2223443,11.0753347 12.1690283,12.1276968 C11.1157123,13.1810128 9.70543569,13.7569506 8.21511915,13.7569506 C6.72480261,13.7569506 5.3135722,13.1810128 4.26121001,12.1276968 C3.20789402,11.0743809 2.63195623,9.66410424 2.63195623,8.1737877 C2.63195623,6.68347116 3.20789402,5.27224075 4.26121001,4.21987856 C5.314526,3.16656257 6.72480261,2.59062478 8.21511915,2.59062478 C9.70543569,2.59062478 11.1166661,3.16656257 12.1690283,4.21987856 C13.2213905,5.27319455 13.7982821,6.68347116 13.7982821,8.1737877 Z" fill="#9B9B9B" fill-rule="nonzero"></path>
            <rect id="Rectangle-Copy-7" x="0" y="0" width="18" height="18"></rect>
        </g>
    </g>
</svg>