<svg width="12" height="16" viewBox="0 0 12 16" fill="none" xmlns="http://www.w3.org/2000/svg">
<path d="M8.5 1H7.414C7.208 0.418 6.652 0 6 0C5.348 0 4.792 0.418 4.585 1H3.5C3.224 1 3 1.224 3 1.5V3.5C3 3.776 3.224 4 3.5 4H8.5C8.776 4 9 3.776 9 3.5V1.5C9 1.224 8.776 1 8.5 1Z" fill="white"/>
<path fill-rule="evenodd" clip-rule="evenodd" d="M11 2H10V3.5C10 4.327 9.327 5 8.5 5H3.5C2.673 5 2 4.327 2 3.5V2H1C0.449 2 0 2.449 0 3V15C0 15.561 0.439 16 1 16H11C11.561 16 12 15.561 12 15V3C12 2.439 11.561 2 11 2ZM5.854 10.854L3.854 12.854C3.756 12.951 3.628 13 3.5 13C3.372 13 3.244 12.951 3.146 12.854L2.146 11.854C1.951 11.659 1.951 11.342 2.146 11.147C2.341 10.952 2.658 10.952 2.853 11.147L3.5 11.793L5.146 10.147C5.341 9.952 5.658 9.952 5.853 10.147C6.048 10.342 6.049 10.658 5.854 10.854ZM3.854 8.854L5.854 6.854C6.049 6.658 6.048 6.342 5.853 6.147C5.658 5.952 5.341 5.952 5.146 6.147L3.5 7.793L2.853 7.147C2.658 6.952 2.341 6.952 2.146 7.147C1.951 7.342 1.951 7.659 2.146 7.854L3.146 8.854C3.244 8.951 3.372 9 3.5 9C3.628 9 3.756 8.951 3.854 8.854ZM7.5 12C7.224 12 7 11.776 7 11.5C7 11.224 7.224 11 7.5 11H9.5C9.776 11 10 11.224 10 11.5C10 11.776 9.776 12 9.5 12H7.5ZM7.5 8H9.5C9.776 8 10 7.776 10 7.5C10 7.224 9.776 7 9.5 7H7.5C7.224 7 7 7.224 7 7.5C7 7.776 7.224 8 7.5 8Z" fill="white"/>
</svg>
