<svg width="15" height="18" viewBox="0 0 15 18" fill="none" xmlns="http://www.w3.org/2000/svg">
<path fill-rule="evenodd" clip-rule="evenodd" d="M0.299758 6.897C0.0509779 7.74578 -0.0404855 8.66407 0.0692706 9.61529C0.219271 10.9104 0.738783 12.0958 1.51805 13.069C1.83634 13.4714 2.41439 13.5555 2.82781 13.2519C3.26317 12.9336 3.34366 12.319 3.00708 11.8982C2.37781 11.108 1.97903 10.1311 1.92415 9.07017C1.8839 8.29822 2.02659 7.56285 2.3083 6.897C3.05098 5.13358 4.77781 3.88602 6.80098 3.8531V5.69334C6.80098 5.79578 6.92537 5.85066 7.01317 5.78846L10.8034 3.00066C10.8656 2.95676 10.8656 2.86163 10.8034 2.81407L7.00951 0.0262677C6.92537 -0.0359274 6.79732 0.0189506 6.79732 0.12139V1.96529C3.72049 2.00188 1.12659 4.07627 0.299758 6.897ZM12.1059 8.90188C12.0546 7.8409 11.6559 6.86041 11.0229 6.07383C10.6863 5.6531 10.7668 5.03846 11.1985 4.72017C11.612 4.41651 12.1863 4.50066 12.5083 4.9031C13.2876 5.87627 13.8071 7.06163 13.9534 8.35676C14.0595 9.30797 13.9717 10.2263 13.7229 11.075C12.8998 13.8994 10.3022 15.9738 7.22537 16.0068V17.8507C7.22537 17.9531 7.10098 18.008 7.01317 17.9458L3.22293 15.158C3.16073 15.1141 3.16073 15.019 3.22293 14.9714L7.01683 12.1836C7.10098 12.1214 7.22903 12.1763 7.22903 12.2787V14.119C9.2522 14.0897 10.979 12.8385 11.7217 11.075C11.9998 10.4129 12.1461 9.67749 12.1059 8.90188Z" fill="#9EA3A8"/>
</svg>
