<?xml version="1.0" encoding="UTF-8"?>
<svg width="24px" height="24px" viewBox="0 0 24 24" version="1.1" xmlns="http://www.w3.org/2000/svg" xmlns:xlink="http://www.w3.org/1999/xlink">
    <!-- Generator: Sketch 54.1 (76490) - https://sketchapp.com -->
    <title>i_hoanthanh@</title>
    <desc>Created with Sketch.</desc>
    <g id="i_hoanthanh" stroke="none" stroke-width="1" fill="none" fill-rule="evenodd">
        <g>
            <g transform="translate(4.000000, 5.000000)" fill="#FFFFFF" fill-rule="nonzero" id="Shape">
                <path d="M0,12.9242236 L0,2.07832625 C0,1.65465839 0.342072573,1.31258581 0.765740438,1.31258581 L10.3814318,1.31258581 L8.85308924,2.84092841 L1.5283426,2.84092841 L1.5283426,12.1584832 L10.8458974,12.1584832 L10.8458974,8.20111147 L12.3742399,6.67276888 L12.3742399,12.9242236 C12.3742399,13.3447532 12.0321674,13.689964 11.6084995,13.689964 L0.765740438,13.689964 C0.342072573,13.689964 0,13.3478915 0,12.9242236 Z M6.65629291,7.0556391 L5.02438705,5.42373325 C4.5661981,4.9655443 3.82242563,4.9655443 3.36423668,5.42373325 C3.14141876,5.64655116 3.01902583,5.94154953 3.01902583,6.25537757 C3.01902583,6.56920562 3.14141876,6.86420399 3.36423668,7.08388362 L5.82464858,9.54429552 C6.28283753,10.0024845 7.02661,10.0024845 7.48479895,9.54429552 L15.0009807,2.02811376 C15.2237986,1.80529585 15.3461916,1.51029748 15.3461916,1.19960771 C15.3461916,0.885779667 15.2237986,0.590781301 15.0009807,0.367963387 C14.5427918,-0.0902255639 13.7990193,-0.0902255639 13.3408303,0.367963387 L6.65629291,7.0556391 Z"></path>
            </g>
            <rect id="Rectangle-Copy-15" x="0" y="0" width="24" height="24"></rect>
        </g>
    </g>
</svg>