<?xml version="1.0" encoding="UTF-8"?>
<svg width="24px" height="24px" viewBox="0 0 24 24" version="1.1" xmlns="http://www.w3.org/2000/svg" xmlns:xlink="http://www.w3.org/1999/xlink">
    <!-- Generator: Sketch 52.6 (67491) - http://www.bohemiancoding.com/sketch -->
    <title>i_bangkechuanhan</title>
    <desc>Created with Sketch.</desc>
    <g id="i_bangkechuanhan" stroke="none" stroke-width="1" fill="none" fill-rule="evenodd">
        <g id="Group">
            <rect id="Rectangle-Copy" x="0" y="0" width="24" height="24"></rect>
            <path d="M17.8823035,4.01578628 L14.9871795,4.01578628 C14.615805,2.84598259 13.5376208,2 12.259773,2 C10.9819252,2 9.90374107,2.84598259 9.53236654,4.01578628 L6.67717528,4.01578628 C5.7507356,4.01578628 5,4.77676584 5,5.71584699 L5,20.133981 C5,21.0730621 5.7507356,21.8340417 6.67717528,21.8340417 L17.8823035,21.8340417 C18.8087432,21.8340417 19.5594788,21.0730621 19.5594788,20.133981 L19.5594788,5.71584699 C19.5594788,4.77676584 18.8087432,4.01578628 17.8823035,4.01578628 Z M12.259773,3.89030561 C12.8108449,3.89030561 13.2580916,4.34365513 13.2580916,4.90224651 C13.2580916,5.46083789 12.8108449,5.91418741 12.259773,5.91418741 C11.7087011,5.91418741 11.2614544,5.46083789 11.2614544,4.90224651 C11.2614544,4.34365513 11.7087011,3.89030561 12.259773,3.89030561 Z M16.6364018,19.1503744 L7.92307692,19.1503744 C7.67948718,19.1503744 7.48381673,18.952034 7.48381673,18.7051204 L7.48381673,7.92592593 C7.48381673,7.67901235 7.67948718,7.48067193 7.92307692,7.48067193 L16.6364018,7.48067193 C16.8799916,7.48067193 17.075662,7.67901235 17.075662,7.92592593 L17.075662,18.7051204 C17.075662,18.952034 16.8799916,19.1503744 16.6364018,19.1503744 Z" id="Shape" fill="#3D88E1" fill-rule="nonzero"></path>
            <path d="M9,8 L15.9802438,8 L15.9802438,9.20218579 L9,9.20218579 L9,8 Z M9,10.072455 L15.9802438,10.072455 L15.9802438,11.2746408 L9,11.2746408 L9,10.072455 Z M9,12.1449099 L15.9802438,12.1449099 L15.9802438,13.3470957 L9,13.3470957 L9,12.1449099 Z M9,14.2173649 L12.4861286,14.2173649 L12.4861286,15.4195507 L9,15.4195507 L9,14.2173649 Z" id="Combined-Shape" fill="#3D88E1" fill-rule="nonzero"></path>
        </g>
    </g>
</svg>