<svg width="18" height="16" viewBox="0 0 18 16" fill="none" xmlns="http://www.w3.org/2000/svg">
<path d="M12.375 9.07015V13.5353H2.25V3.41028H5.625V1.16028H1.125C0.504 1.16028 0 1.66428 0 2.28528V14.6603C0 15.2824 0.504 15.7853 1.125 15.7853H13.5C14.1221 15.7853 14.625 15.2824 14.625 14.6603V9.07015H12.375Z" fill="white"/>
<path d="M17.775 3.52278L13.275 0.147782C13.1062 0.0195318 12.8767 -0.000718169 12.6866 0.0949068C12.4954 0.190532 12.375 0.385157 12.375 0.597782V2.28528H10.6875C7.27537 2.28528 4.5 5.06066 4.5 8.47278C4.5 8.73378 4.68 8.96103 4.93312 9.02066C4.97587 9.03078 5.01975 9.03528 5.0625 9.03528C5.27175 9.03528 5.46862 8.91828 5.56537 8.72478L5.69813 8.46041C6.561 6.73353 8.29575 5.66028 10.2263 5.66028H12.375V7.34778C12.375 7.56041 12.4954 7.75503 12.6855 7.85066C12.8756 7.94628 13.1051 7.92603 13.275 7.79778L17.775 4.42278C17.9167 4.31703 18 4.14941 18 3.97278C18 3.79616 17.9167 3.62853 17.775 3.52278Z" fill="white"/>
</svg>
