<?xml version="1.0" encoding="UTF-8"?>
<svg width="24px" height="24px" viewBox="0 0 24 24" version="1.1" xmlns="http://www.w3.org/2000/svg" xmlns:xlink="http://www.w3.org/1999/xlink">
    <!-- Generator: Sketch 54.1 (76490) - https://sketchapp.com -->
    <title>btn_xoa@</title>
    <desc>Created with Sketch.</desc>
    <g id="btn_xoa" stroke="none" stroke-width="1" fill="none" fill-rule="evenodd">
        <g>
            <rect id="Rectangle-Copy-27" transform="translate(12.000000, 12.000000) rotate(90.000000) translate(-12.000000, -12.000000) " x="0" y="0" width="24" height="24"></rect>
            <path d="M8.62578125,4 L15.0241121,4 L15.0241121,6.11014493 L18.65,6.11014493 L18.65,7.37612638 L17.4319508,7.37612638 L16.5788258,18.56 L7.07117422,18.56 L6.21804922,7.37612638 L5,7.37612638 L5,6.11014493 L8.62578125,6.11014493 L8.62578125,4 Z M9.90546875,6.11014493 L13.7445313,6.11014493 L13.7445313,5.26608696 L9.90546875,5.26608696 L9.90546875,6.11014493 Z M7.5013625,7.37612638 L8.25797773,17.293913 L15.3920223,17.293913 L16.1485309,7.37612638 L7.5013625,7.37612638 Z M11.3798913,14.8105076 L11.3798913,10.1425 L12.2701087,10.1425 L12.2701087,14.8105076 L11.3798913,14.8105076 Z M9.7775,14.8105076 L9.7775,10.1425 L10.5786957,10.1425 L10.5786957,14.8105076 L9.7775,14.8105076 Z M13.0713043,14.8105076 L13.0713043,10.1425 L13.8725,10.1425 L13.8725,14.8105076 L13.0713043,14.8105076 Z" fill="#EB3C66"></path>
        </g>
    </g>
</svg>