<?xml version="1.0" encoding="UTF-8"?>
<svg width="24px" height="24px" viewBox="0 0 24 24" version="1.1" xmlns="http://www.w3.org/2000/svg" xmlns:xlink="http://www.w3.org/1999/xlink">
    <!-- Generator: Sketch 52.6 (67491) - http://www.bohemiancoding.com/sketch -->
    <title>i_chuyenthuchuadong</title>
    <desc>Created with Sketch.</desc>
    <g id="i_chuyenthuchuadong" stroke="none" stroke-width="1" fill="none" fill-rule="evenodd">
        <g id="Group">
            <rect id="Rectangle-Copy" x="0" y="0" width="24" height="24"></rect>
            <g id="Group-5" transform="translate(2.000000, 4.000000)" fill-rule="nonzero">
                <path d="M19.3142857,11 L18.8190476,11 L18.8190476,7.621875 C18.8190476,7.225 18.6611905,6.84375 18.382619,6.5625 L15.2904762,3.440625 C15.0119048,3.159375 14.6342857,3 14.2411905,3 L12.8761905,3 L12.8761905,1.5 C12.8761905,0.671875 12.2107143,0 11.3904762,0 L1.48571429,0 C0.66547619,0 0,0.671875 0,1.5 L0,11.5 C0,12.328125 0.66547619,13 1.48571429,13 L1.98095238,13 C1.98095238,14.65625 3.31190476,16 4.95238095,16 C6.59285714,16 7.92380952,14.65625 7.92380952,13 L11.8857143,13 C11.8857143,14.65625 13.2166667,16 14.8571429,16 C16.497619,16 17.8285714,14.65625 17.8285714,13 L19.3142857,13 C19.5866667,13 19.8095238,12.775 19.8095238,12.5 L19.8095238,11.5 C19.8095238,11.225 19.5866667,11 19.3142857,11 Z M4.95238095,14.5 C4.13214286,14.5 3.46666667,13.828125 3.46666667,13 C3.46666667,12.171875 4.13214286,11.5 4.95238095,11.5 C5.77261905,11.5 6.43809524,12.171875 6.43809524,13 C6.43809524,13.828125 5.77261905,14.5 4.95238095,14.5 Z M14.8571429,14.5 C14.0369048,14.5 13.3714286,13.828125 13.3714286,13 C13.3714286,12.171875 14.0369048,11.5 14.8571429,11.5 C15.677381,11.5 16.3428571,12.171875 16.3428571,13 C16.3428571,13.828125 15.677381,14.5 14.8571429,14.5 Z M17.3333333,8 L12.8761905,8 L12.8761905,4.5 L14.2411905,4.5 L17.3333333,7.621875 L17.3333333,8 Z" id="Shape" fill="#14C079"></path>
                <path d="M10.3550461,1.99016417 L2.35780629,1.99016417 C2.04248655,1.99016417 1.78657487,2.25125624 1.78657487,2.57295897 L1.78657487,8.98370183 C1.78657487,9.30569406 2.04248655,9.56649664 2.35780629,9.56649664 L10.3550461,9.56649664 C10.6706496,9.56649664 10.9262775,9.30569406 10.9262775,8.98370183 L10.9262775,2.57295897 C10.9262775,2.25125624 10.6706496,1.99016417 10.3550461,1.99016417 Z M10.0694304,8.69230443 L2.643422,8.69230443 L2.643422,4.23422128 L5.98912067,7.09866155 C6.09566093,7.18957754 6.22618544,7.23533265 6.3564262,7.23533265 C6.48695071,7.23533265 6.61719148,7.18957754 6.72373174,7.09866155 L10.0694304,4.23422128 L10.0694304,8.69230443 Z M10.0694304,3.09310143 L6.3564262,6.27167192 L2.643422,3.09310143 L2.643422,2.86435637 L10.0694304,2.86435637 L10.0694304,3.09310143 Z" id="Shape" fill="#FFFFFF"></path>
            </g>
        </g>
    </g>
</svg>