<?xml version="1.0" encoding="UTF-8"?>
<svg width="18px" height="18px" viewBox="0 0 18 18" version="1.1" xmlns="http://www.w3.org/2000/svg" xmlns:xlink="http://www.w3.org/1999/xlink">
    <!-- Generator: Sketch 54.1 (76490) - https://sketchapp.com -->
    <title>i_xoa_xam@</title>
    <desc>Created with Sketch.</desc>
    <g id="i_xoa_xam" stroke="none" stroke-width="1" fill="none" fill-rule="evenodd">
        <g>
            <g id="i_delete_white-copy" transform="translate(2.000000, 1.000000)" fill="#A1A6AB">
                <path d="M3.62578125,0 L3.62578125,2.11014493 L0,2.11014493 L0,3.37612638 L1.21804922,3.37612638 L2.07117422,14.56 L11.5788258,14.56 L12.4319508,3.37612638 L13.65,3.37612638 L13.65,2.11014493 L10.0241121,2.11014493 L10.0241121,0 L3.62578125,0 Z M4.90546875,2.11014493 L8.74453125,2.11014493 L8.74453125,1.26608696 L4.90546875,1.26608696 L4.90546875,2.11014493 Z M2.5013625,3.37612638 L11.1485309,3.37612638 L10.3920223,13.293913 L3.25797773,13.293913 L2.5013625,3.37612638 Z" id="Fill-1"></path>
                <path d="M6.3798913,10.8105076 L6.3798913,6.1425 L7.2701087,6.1425 L7.2701087,10.8105076 L6.3798913,10.8105076 Z M4.7775,10.8105076 L4.7775,6.1425 L5.57869565,6.1425 L5.57869565,10.8105076 L4.7775,10.8105076 Z M8.07130435,10.8105076 L8.07130435,6.1425 L8.8725,6.1425 L8.8725,10.8105076 L8.07130435,10.8105076 Z" id="Combined-Shape"></path>
            </g>
            <rect id="Rectangle-Copy-50" transform="translate(9.000000, 9.000000) rotate(90.000000) translate(-9.000000, -9.000000) " x="0" y="0" width="18" height="18"></rect>
        </g>
    </g>
</svg>