<?xml version="1.0" encoding="UTF-8"?>
<svg width="24px" height="24px" viewBox="0 0 24 24" version="1.1" xmlns="http://www.w3.org/2000/svg" xmlns:xlink="http://www.w3.org/1999/xlink">
    <!-- Generator: Sketch 54.1 (76490) - https://sketchapp.com -->
    <title>i_chuyenphancong@</title>
    <desc>Created with Sketch.</desc>
    <g id="i_chuyenphancong" stroke="none" stroke-width="1" fill="none" fill-rule="evenodd">
        <g>
            <g transform="translate(2.000000, 4.000000)">
                <g id="man-user">
                    <path d="M6,7.66446269 C7.74241791,7.66446269 9.1550597,5.94873134 9.1550597,3.83225373 C9.1550597,1.71573134 8.69126866,0 6,0 C3.30873134,0 2.84485075,1.71573134 2.84485075,3.83225373 C2.84485075,5.94873134 4.25749254,7.66446269 6,7.66446269 Z" id="Path" fill="#FFFFFF"></path>
                    <path d="M0.0686960351,13.5494882 C0.0674960351,13.3549026 0.0662960351,13.494664 0.0686960351,13.5494882 L0.0686960351,13.5494882 Z" id="Path" fill="#000000"></path>
                    <path d="M11.986085,13.616597 C11.989885,13.5812687 11.987385,13.3714925 11.986085,13.616597 L11.986085,13.616597 Z" id="Path" fill="#000000"></path>
                    <path d="M11.9523134,13.3610597 C11.8938806,9.67410448 11.4123582,8.62352239 7.72759701,7.95850746 C7.72759701,7.95850746 7.20891045,8.61944776 5.99995522,8.61944776 C4.791,8.61944776 4.27222388,7.95850746 4.27222388,7.95850746 C0.627671642,8.61626866 0.116865672,9.65126866 0.0497014925,13.2412836 C0.0441940299,13.5344328 0.041641791,13.5498358 0.0406567164,13.515806 C0.040880597,13.5795672 0.0411492537,13.6975075 0.0411492537,13.9031642 C0.0411492537,13.9031642 0.918402985,15.6716418 5.99995522,15.6716418 C11.0814179,15.6716418 11.9587612,13.9031642 11.9587612,13.9031642 C11.9587612,13.7710299 11.9588507,13.6791493 11.9589851,13.6166418 C11.958,13.6376866 11.9560299,13.5968955 11.9523134,13.3610597 Z" id="Path" fill="#FFFFFF"></path>
                </g>
                <path d="M19.0568402,13.0427322 L16.1389954,15.5156904 C16.0115799,15.6238179 15.8493151,15.4884904 15.8493151,15.272086 L15.8493151,14.2202531 L13.4,14.2202531 C13.1925114,14.2202531 13,13.9679058 13,13.6626531 L13,11.8910663 C13,11.5858135 13.1925114,11.3059674 13.4,11.3059674 L15.8493151,11.3059674 L15.8493151,10.2816333 C15.8493151,10.0652289 16.0115799,9.92990143 16.1389954,10.0380289 L19.0553059,12.5106135 C19.1946301,12.6287542 19.1961644,12.9245168 19.0568402,13.0427322 Z" id="Shape" fill="#FFFFFF" fill-rule="nonzero"></path>
            </g>
            <rect id="Rectangle-Copy-63" transform="translate(12.000000, 12.000000) rotate(90.000000) translate(-12.000000, -12.000000) " x="0" y="0" width="24" height="24"></rect>
        </g>
    </g>
</svg>