<?xml version="1.0" encoding="UTF-8"?>
<svg width="24px" height="24px" viewBox="0 0 24 24" version="1.1" xmlns="http://www.w3.org/2000/svg" xmlns:xlink="http://www.w3.org/1999/xlink">
    <!-- Generator: Sketch 54.1 (76490) - https://sketchapp.com -->
    <title>i_chuyenvaotai@</title>
    <desc>Created with Sketch.</desc>
    <g id="i_chuyenvaotai" stroke="none" stroke-width="1" fill="none" fill-rule="evenodd">
        <g>
            <path d="M18.2831781,7.31648352 L12.3287671,7.31648352 L12.3287671,6.01402198 C12.3287671,5.44020659 11.9215342,5 11.3605114,5 L5.07660274,5 C4.51557991,5 4,5.44020659 4,6.01402198 L4,9.13731429 L4,10.2540088 L4,16.8065934 C4,17.8108264 4.85676712,18.6 5.83861187,18.6 L18.2831781,18.6 C19.2650228,18.6 20,17.8108264 20,16.8065934 L20,9.13731429 C20,8.13308132 19.2650228,7.31648352 18.2831781,7.31648352 Z M15.0248767,13.2378637 L12.107032,15.710822 C11.9796164,15.8189495 11.8173516,15.683622 11.8173516,15.4672176 L11.8173516,14.4153846 L9.36803653,14.4153846 C9.16054795,14.4153846 8.96803653,14.1630374 8.96803653,13.8577846 L8.96803653,12.0861978 C8.96803653,11.7809451 9.16054795,11.5010989 9.36803653,11.5010989 L11.8173516,11.5010989 L11.8173516,10.4767648 C11.8173516,10.2603604 11.9796164,10.125033 12.107032,10.2331604 L15.0233425,12.7057451 C15.1626667,12.8238857 15.1642009,13.1196484 15.0248767,13.2378637 Z" fill="#FFFFFF" fill-rule="nonzero"></path>
            <rect id="Rectangle-Copy-12" x="0" y="0" width="24" height="24"></rect>
        </g>
    </g>
</svg>