<svg width="16" height="16" viewBox="0 0 16 16" fill="none" xmlns="http://www.w3.org/2000/svg">
<path fill-rule="evenodd" clip-rule="evenodd" d="M0.665864 15.7779H12.4435C12.7877 15.7779 13.0667 15.4987 13.0667 15.1547V3.37735C13.0667 3.03335 12.7877 2.75415 12.4435 2.75415H0.665864C0.321597 2.75415 0.0426636 3.03308 0.0426636 3.37735V15.1547C0.0426636 15.499 0.321597 15.7779 0.665864 15.7779ZM11.82 14.5312H1.28906V4.00055H11.82V14.5312Z" fill="#299F9A"/>
<path fill-rule="evenodd" clip-rule="evenodd" d="M15.112 13.024H13.8466C13.5024 13.024 13.2234 12.7448 13.2234 12.4008C13.2234 12.0565 13.5024 11.7776 13.8466 11.7776H14.4888V1.24667H3.95758V1.94C3.95758 2.28427 3.67865 2.5632 3.33438 2.5632C2.99011 2.5632 2.71118 2.284 2.71118 1.94V0.6232C2.71118 0.2792 2.99011 0 3.33438 0H15.112C15.4562 0 15.7352 0.2792 15.7352 0.6232V12.4008C15.7352 12.7448 15.4562 13.024 15.112 13.024Z" fill="#299F9A"/>
</svg>
