<?xml version="1.0" encoding="UTF-8"?>
<svg width="16px" height="16px" viewBox="0 0 16 16" version="1.1" xmlns="http://www.w3.org/2000/svg" xmlns:xlink="http://www.w3.org/1999/xlink">
    <!-- Generator: Sketch 61 (89581) - https://sketch.com -->
    <title>i_tach kien@</title>
    <desc>Created with Sketch.</desc>
    <g id="Page-1" stroke="none" stroke-width="1" fill="none" fill-rule="evenodd">
        <g id="i_tach-kien" transform="translate(-4.000000, -4.000000)">
            <g>
                <g id="split" transform="translate(5.000000, 5.000000)" fill="#FFFFFF" fill-rule="nonzero" stroke="#FFFFFF" stroke-width="0.4">
                    <polygon id="Path" points="5.30605469 6.4535625 2.08982813 6.4535625 3.56133203 4.98205859 2.78857031 4.20929688 0 6.9978125 2.78638281 9.81585938 3.56349219 9.04744531 2.07935547 7.5464375 5.30605469 7.5464375"></polygon>
                    <polygon id="Path" points="11.211457 4.20929688 10.4386953 4.98205859 11.9101719 6.4535625 8.69397266 6.4535625 8.69397266 7.5464375 11.9206445 7.5464375 10.4365078 9.04744531 11.2136172 9.81585938 14 6.9978125"></polygon>
                    <path d="M13.9944219,3.96727734 L13.9944219,1.64489063 C13.9944219,0.740960938 13.2590117,0.005578125 12.3551094,0.005578125 L1.64491797,0.005578125 C0.740988281,0.005578125 0.00560546875,0.740988281 0.00560546875,1.64489063 L0.00560546875,3.96725 L1.09848047,3.96725 L1.09848047,1.64489063 C1.09848047,1.34358984 1.34361719,1.09845313 1.64491797,1.09845313 L6.4535625,1.09845313 L6.4535625,12.9015195 L1.64491797,12.9015195 C1.34361719,12.9015195 1.09848047,12.6563828 1.09848047,12.355082 L1.09848047,10.0054063 L0.00560546875,10.0054063 L0.00560546875,12.355082 C0.00560546875,13.2590117 0.741015625,13.9943945 1.64491797,13.9943945 L12.3551094,13.9943945 C13.2590391,13.9943945 13.9944219,13.2589844 13.9944219,12.355082 L13.9944219,10.0054063 L12.9015469,10.0054063 L12.9015469,12.355082 C12.9015469,12.6563828 12.6564102,12.9015195 12.3551094,12.9015195 L7.54646484,12.9015195 L7.54646484,1.09845313 L12.3551094,1.09845313 C12.6564102,1.09845313 12.9015469,1.34358984 12.9015469,1.64489063 L12.9015469,3.96725 L13.9944219,3.96725 L13.9944219,3.96727734 Z" id="Path"></path>
                </g>
                <rect id="Rectangle" x="0" y="0" width="24" height="24"></rect>
            </g>
        </g>
    </g>
</svg>