<?xml version="1.0" encoding="UTF-8"?>
<svg width="24px" height="24px" viewBox="0 0 24 24" version="1.1" xmlns="http://www.w3.org/2000/svg" xmlns:xlink="http://www.w3.org/1999/xlink">
    <!-- Generator: Sketch 52.6 (67491) - http://www.bohemiancoding.com/sketch -->
    <title>i_taichuadong</title>
    <desc>Created with Sketch.</desc>
    <g id="i_taichuadong" stroke="none" stroke-width="1" fill="none" fill-rule="evenodd">
        <g id="Group-2">
            <rect id="Rectangle-Copy" x="0" y="0" width="24" height="24"></rect>
            <g id="Group" transform="translate(5.000000, 4.000000)" fill="#A675D5">
                <path d="M8.38503943,3.72019568 L10.2905703,0.320791615 L10.2021561,0.261075022 C9.85672403,0.0271439059 9.57914467,5.99520433e-15 9.4002602,5.99520433e-15 C9.01627543,5.99520433e-15 8.63588891,0.152992924 8.23134271,0.314869308 C7.85712462,0.46588813 7.43304506,0.6371415 7.0048532,0.6371415 C6.83522138,0.6371415 6.67175798,0.609997594 6.52011741,0.556696833 C5.70537061,0.266997329 5.08801357,0.0873540244 4.52565836,0.0873540244 C3.98849091,0.0873540244 3.54333588,0.257620343 3.08121766,0.639609128 L3,0.706728604 L5.07824689,3.72019568 L8.38503943,3.72019568 Z" id="Fill-1"></path>
                <path d="M8.81160231,4.02072807 L8.78024613,4 L5.29919544,4 L5.26783925,4.02171512 C4.73735427,4.38346936 3.69488959,5.168175 2.67041617,6.35707808 C0.898534643,8.41162499 2.04281037e-14,10.6492699 2.04281037e-14,13.0083221 C2.04281037e-14,14.4592872 1.23008776,15.6398004 2.74135312,15.6398004 L11.346313,15.6398004 C12.0798422,15.6398004 12.7686502,15.3649066 13.2862843,14.8654588 C13.8023763,14.3674915 14.0840679,13.7076478 14.0799556,13.0083221 C14.0799556,10.6448282 13.181935,8.40668974 11.4100535,6.35707808 C10.2709501,5.03541663 9.13338875,4.23491817 8.81160231,4.02072807" id="Fill-3"></path>
            </g>
        </g>
    </g>
</svg>