<?xml version="1.0" encoding="UTF-8"?>
<svg width="24px" height="24px" viewBox="0 0 24 24" version="1.1" xmlns="http://www.w3.org/2000/svg" xmlns:xlink="http://www.w3.org/1999/xlink">
    <!-- Generator: Sketch 54.1 (76490) - https://sketchapp.com -->
    <title>btn_in@</title>
    <desc>Created with Sketch.</desc>
    <g id="btn_in" stroke="none" stroke-width="1" fill="none" fill-rule="evenodd">
        <g>
            <rect id="Rectangle-Copy-26" transform="translate(12.000000, 12.000000) rotate(90.000000) translate(-12.000000, -12.000000) " x="0" y="0" width="24" height="24"></rect>
            <path d="M16.9013,14.0732 C16.6003,14.0732 16.3543,13.8272 16.3543,13.5262 C16.3543,13.2252 16.6003,12.9792 16.9013,12.9792 C17.2023,12.9792 17.4483,13.2252 17.4483,13.5262 C17.4483,13.8272 17.2023,14.0732 16.9013,14.0732 Z M8.402,14.625 L15.839,14.625 C16.267,14.625 16.615,14.973 16.615,15.401 L16.615,16.375 L18.125,16.375 L18.125,12.995 C18.125,12.137 17.458,11.431 16.615,11.37 L16.615,12.339 C16.615,12.767 16.267,13.115 15.839,13.115 L8.402,13.115 C7.974,13.115 7.625,12.767 7.625,12.339 L7.625,11.37 C6.782,11.431 6.115,12.137 6.115,12.995 L6.115,16.375 L7.625,16.375 L7.625,15.401 C7.625,14.973 7.974,14.625 8.402,14.625 Z M8.74,12 L15.5,12 L15.5,7.5 L14.115,6.115 L8.74,6.115 L8.74,12 Z M8.74,18.125 L15.5,18.125 L15.5,15.74 L8.74,15.74 L8.74,18.125 Z M16.615,7.359 L16.615,10.253 C18.073,10.316 19.24,11.521 19.24,12.995 L19.24,16.714 C19.24,17.142 18.892,17.49 18.464,17.49 L16.615,17.49 L16.615,18.464 C16.615,18.892 16.267,19.24 15.839,19.24 L8.402,19.24 C7.974,19.24 7.625,18.892 7.625,18.464 L7.625,17.49 L5.776,17.49 C5.349,17.49 5,17.142 5,16.714 L5,12.995 C5,11.521 6.167,10.316 7.625,10.253 L7.625,5.776 C7.625,5.348 7.974,5 8.402,5 L14.253,5 C14.461,5 14.656,5.081 14.803,5.227 L16.389,6.81 C16.534,6.956 16.615,7.151 16.615,7.359 Z" fill="#2C9859"></path>
        </g>
    </g>
</svg>