<svg width="18" height="11" viewBox="0 0 18 11" fill="none" xmlns="http://www.w3.org/2000/svg">
<path fill-rule="evenodd" clip-rule="evenodd" d="M8.7973 0C14.3256 0 17.4245 4.72573 17.4245 4.72573C17.6477 4.98487 17.6477 5.39877 17.4245 5.7011C17.4245 5.7011 14.412 10.5204 8.7973 10.4268C3.13219 10.3297 0.170061 5.7011 0.170061 5.7011C-0.0566871 5.43836 -0.0566871 5.02446 0.170061 4.72573C0.170061 4.72573 3.30855 0 8.7973 0ZM8.70012 1.46127C4.28033 1.51526 1.71051 5.21162 1.71051 5.21162C1.71051 5.21162 4.23354 8.90798 8.70012 8.96196C6.68098 8.90798 5.04695 7.24155 5.04695 5.21162C5.04695 3.18168 6.68098 1.51166 8.70012 1.46127ZM8.7973 2.92254C10.0714 2.92254 11.0864 3.93391 11.0864 5.21162C11.0864 6.48573 10.075 7.5007 8.7973 7.5007C7.51959 7.5007 6.50822 6.48933 6.50822 5.21162C6.50822 3.93751 7.52319 2.92254 8.7973 2.92254ZM12.5476 5.21162C12.5476 7.24155 10.9136 8.91157 8.89448 8.96196C13.3539 8.90798 15.9237 5.21162 15.9237 5.21162C15.9237 5.21162 13.3827 1.46127 8.7973 1.46127C10.8596 1.46127 12.5476 3.14928 12.5476 5.21162Z" fill="#FD8301"/>
</svg>
