<?xml version="1.0" encoding="UTF-8"?>
<svg width="24px" height="24px" viewBox="0 0 24 24" version="1.1" xmlns="http://www.w3.org/2000/svg" xmlns:xlink="http://www.w3.org/1999/xlink">
    <!-- Generator: Sketch 54.1 (76490) - https://sketchapp.com -->
    <title>btn_thongbao@</title>
    <desc>Created with Sketch.</desc>
    <g id="btn_thongbao" stroke="none" stroke-width="1" fill="none" fill-rule="evenodd">
        <g>
            <rect id="Rectangle-Copy-4" x="0" y="0" width="24" height="24"></rect>
            <path d="M3.94666667,18.9420225 C4.04888889,18.2600395 4.28222222,17.6017311 4.63333333,16.9968816 L19.4081481,16.9968816 C19.7577778,17.6002037 19.9837037,18.2600395 20.0711111,18.9420225 L3.94666667,18.9420225 Z M12,22.054859 C11.6881481,22.054859 11.4340741,21.7929103 11.4340741,21.4706294 C11.4340741,21.1491122 11.6881481,20.8871635 12,20.8871635 C12.3125926,20.8871635 12.5659259,21.1491122 12.5659259,21.4706294 C12.5659259,21.7929103 12.3125926,22.054859 12,22.054859 L12,22.054859 Z M6.52814815,12.8805448 L6.52814815,9.02081079 C6.52814815,5.95379622 8.94666667,3.42518933 11.92,3.3801311 L12.08,3.3801311 C15.0540741,3.42518933 17.4718519,5.95379622 17.4718519,9.02081079 L17.4718519,12.5712467 C17.4718519,13.5258703 17.6511111,14.3644116 17.9962963,15.0517406 L6.04740741,15.0517406 C6.3637037,14.4308534 6.52814815,13.6969388 6.52814815,12.8805448 L6.52814815,12.8805448 Z M22,19.5926939 C22,17.7376694 21.277037,15.9582511 19.9644444,14.5828295 C19.5681481,14.1673773 19.3585185,13.4724114 19.3585185,12.5712467 L19.3585185,9.02081079 C19.3585185,5.28937822 16.6933333,2.15744925 13.2244444,1.54954496 C13.2414815,1.46477439 13.2503704,1.37771272 13.2503704,1.28835996 C13.2503704,0.57659263 12.6903704,0 12,0 C11.3096296,0 10.7503704,0.57659263 10.7503704,1.28835996 C10.7503704,1.37771272 10.7592593,1.46477439 10.7755556,1.54954496 C7.30666667,2.15744925 4.64148148,5.28937822 4.64148148,9.02081079 L4.64148148,12.8805448 C4.64148148,13.5968943 4.45259259,14.1750143 4.09555556,14.5522816 C2.74444444,15.978871 2,17.82244 2,19.7416152 L2,20.8871635 L9.61407407,20.8871635 C9.57111111,21.0750334 9.54740741,21.2697766 9.54740741,21.4706294 C9.54740741,22.8651435 10.6474074,24 12,24 C13.3525926,24 14.4525926,22.8651435 14.4525926,21.4706294 C14.4525926,21.2697766 14.4296296,21.0750334 14.3859259,20.8871635 L22,20.8871635 L22,19.5926939 Z" id="Fill-1-Copy" fill="#9EA3A8"></path>
        </g>
    </g>
</svg>