<?xml version="1.0" encoding="UTF-8"?>
<svg width="24px" height="24px" viewBox="0 0 24 24" version="1.1" xmlns="http://www.w3.org/2000/svg" xmlns:xlink="http://www.w3.org/1999/xlink">
    <!-- Generator: Sketch 52.6 (67491) - http://www.bohemiancoding.com/sketch -->
    <title>I_taichuanhan</title>
    <desc>Created with Sketch.</desc>
    <g id="I_taichuanhan" stroke="none" stroke-width="1" fill="none" fill-rule="evenodd">
        <g id="Group">
            <path d="M13.6860748,7.72019568 L10.3792822,7.72019568 L8.30103534,4.7067286 L8.382253,4.63960913 C8.84437122,4.25762034 9.28952625,4.08735402 9.8266937,4.08735402 C10.3890489,4.08735402 11.0064059,4.26699733 11.8211527,4.55669683 C11.9727933,4.60999759 12.1362567,4.6371415 12.3058885,4.6371415 C12.7340804,4.6371415 13.15816,4.46588813 13.532378,4.31486931 C13.9369243,4.15299292 14.3173108,4 14.7012955,4 C14.88018,4 15.1577594,4.02714391 15.5031914,4.26107502 L15.5916056,4.32079162 L13.6860748,7.72019568 Z M13.8116023,8.3809277 C14.1333887,8.5951178 15.2709501,9.39561626 16.4100535,10.7172777 C18.181935,12.7668894 19.0799556,15.0050278 19.0799556,17.3685217 C19.0840679,18.0678474 18.8023763,18.7276911 18.2862843,19.2256584 C17.7686502,19.7251063 17.0798422,20 16.346313,20 L7.74135312,20 C6.23008776,20 5,18.8194869 5,17.3685217 C5,15.0094695 5.89853464,12.7718246 7.67041617,10.7172777 C8.69488959,9.52837464 9.73735427,8.74366899 10.2678393,8.38191476 L10.2991954,8.36019963 L13.7802461,8.36019963 L13.8116023,8.3809277 Z" id="Combined-Shape-Copy" fill="#B5A161"></path>
            <rect id="Rectangle" x="0" y="0" width="24" height="24"></rect>
        </g>
    </g>
</svg>