<?xml version="1.0" encoding="UTF-8"?>
<svg width="24px" height="24px" viewBox="0 0 24 24" version="1.1" xmlns="http://www.w3.org/2000/svg" xmlns:xlink="http://www.w3.org/1999/xlink">
    <!-- Generator: Sketch 54.1 (76490) - https://sketchapp.com -->
    <title>btn_sua@</title>
    <desc>Created with Sketch.</desc>
    <g id="btn_sua" stroke="none" stroke-width="1" fill="none" fill-rule="evenodd">
        <g>
            <rect id="Rectangle-Copy-28" transform="translate(12.000000, 12.000000) rotate(90.000000) translate(-12.000000, -12.000000) " x="0" y="0" width="24" height="24"></rect>
            <path d="M18.8372006,8.51446078 L15.4696158,5.14136438 C15.3747352,5.04630719 15.250207,5 15.1256787,5 C15.0011505,5 14.8766435,5.04630719 14.7817416,5.14178922 L6,13.9375 L6,18 L10.0558619,18 L18.8372006,9.20428922 C18.9325054,9.10880719 18.9787582,8.98409641 18.9787582,8.85938562 C18.9787582,8.73425 18.9325054,8.60994281 18.8372006,8.51446078 Z M7.21675858,16.78125 L7.21675858,14.7991536 L9.19561626,16.78125 L7.21675858,16.78125 Z M10.2833931,16.1475 L7.84987597,13.71 L13.4790094,8.07125 L15.9125266,10.50875 L10.2833931,16.1475 Z M16.7727722,9.6475 L14.3392551,7.21 L15.1256787,6.42186438 L17.5591959,8.85936438 L16.7727722,9.6475 Z" fill="#3D88E1" fill-rule="nonzero"></path>
        </g>
    </g>
</svg>