<?xml version="1.0" encoding="UTF-8"?>
<svg width="24px" height="24px" viewBox="0 0 24 24" version="1.1" xmlns="http://www.w3.org/2000/svg" xmlns:xlink="http://www.w3.org/1999/xlink">
    <!-- Generator: Sketch 54.1 (76490) - https://sketchapp.com -->
    <title>i_layfilemau@</title>
    <desc>Created with Sketch.</desc>
    <g id="i_layfilemau" stroke="none" stroke-width="1" fill="none" fill-rule="evenodd">
        <g>
            <path d="M20.4198462,5.07692308 C20.739,5.07692308 21,5.34761538 21,5.67923077 L21,18.3207692 C21,18.6523846 20.739,18.9230769 20.4198462,18.9230769 L14.0769231,18.9230769 L14.0769231,16.8461538 L16.1538462,16.8461538 L16.1538462,15.4615385 L14.0769231,15.4615385 L14.0769231,14.0769231 L16.1538462,14.0769231 L16.1538462,12.6923077 L14.0769231,12.6923077 L14.0769231,11.3076923 L16.1538462,11.3076923 L16.1538462,9.92307692 L14.0769231,9.92307692 L14.0769231,8.54884615 L16.1753077,8.54884615 L16.1753077,7.14276923 L14.0769231,7.14276923 L14.0769231,5.07692308 L20.4198462,5.07692308 Z M19.6153846,16.8461538 L19.6153846,15.4615385 L16.8461538,15.4615385 L16.8461538,16.8461538 L19.6153846,16.8461538 Z M19.6153846,14.0769231 L19.6153846,12.6923077 L16.8461538,12.6923077 L16.8461538,14.0769231 L19.6153846,14.0769231 Z M19.6153846,11.3076923 L19.6153846,9.92307692 L16.8461538,9.92307692 L16.8461538,11.3076923 L19.6153846,11.3076923 Z M19.6153846,8.53846154 L19.6153846,7.15384615 L16.8461538,7.15384615 L16.8461538,8.53846154 L19.6153846,8.53846154 Z M3,5.00007692 L13.3846154,3 L13.3846154,21 L3,19.0006154 L3,5.00007692 Z M9.56861538,15.5169231 L11.4413077,15.5162308 L9.27992308,11.9806154 L11.3824615,8.50384615 L9.62261538,8.50384615 L8.508,10.587 C8.40069231,10.8576923 8.32730769,11.0612308 8.28784615,11.1983077 L8.26846154,11.1983077 C8.20615385,10.9705385 8.13623077,10.7732308 8.058,10.6070769 L7.05553846,8.50453846 L5.13369231,8.50453846 L7.17807692,12.0110769 L4.94330769,15.5169231 L6.82569231,15.5169231 L8.03792308,13.2530769 C8.12307692,13.0343077 8.17707692,12.8709231 8.19992308,12.7636154 L8.21861538,12.7636154 C8.26776923,12.9913846 8.31484615,13.1478462 8.36053846,13.233 L9.56861538,15.5169231 Z" fill="#FFFFFF" fill-rule="nonzero"></path>
            <rect id="Rectangle-Copy-62" transform="translate(12.000000, 12.000000) rotate(90.000000) translate(-12.000000, -12.000000) " x="0" y="0" width="24" height="24"></rect>
        </g>
    </g>
</svg>