<?xml version="1.0" encoding="UTF-8"?>
<svg width="24px" height="24px" viewBox="0 0 24 24" version="1.1" xmlns="http://www.w3.org/2000/svg" xmlns:xlink="http://www.w3.org/1999/xlink">
    <!-- Generator: Sketch 54.1 (76490) - https://sketchapp.com -->
    <title>i_lammoi@</title>
    <desc>Created with Sketch.</desc>
    <g id="i_lammoi" stroke="none" stroke-width="1" fill="none" fill-rule="evenodd">
        <g>
            <path d="M6.23247474,10.6315789 C5.81901128,10.6315789 5.43329831,10.4160635 5.20511018,10.0586295 C4.97692205,9.70132579 4.93630086,9.24909496 5.09746716,8.85414606 C6.25790223,6.00476949 8.97873728,4 12.143329,4 C14.2304233,4 16.1232955,4.87202686 17.5046985,6.28267961 L18.0228228,5.47490359 C18.1533191,5.27143717 18.3969835,5.18100403 18.6225347,5.25225636 C18.8477092,5.32350868 19.00131,5.53967547 18.9999916,5.78410872 L18.9804972,10.0808389 C18.9794926,10.2680879 18.8873886,10.4421155 18.7357655,10.5435231 C18.5838912,10.6447678 18.3929967,10.6595198 18.2282203,10.5827639 L14.4691591,8.82841967 C14.2538417,8.72805419 14.1277088,8.49254377 14.1594147,8.2498039 C14.1910578,8.00693377 14.3726916,7.81476742 14.606185,7.77721992 L15.2897448,7.66744314 C14.4176449,6.96771796 13.3298508,6.54583776 12.143329,6.54583776 C9.99053143,6.54583776 8.14389959,7.91376517 7.35856701,9.85477229 C7.16836314,10.3253047 6.72419835,10.6315789 6.23247474,10.6315789 Z M18.7949391,13.4150575 C19.0230957,13.7723956 19.0637168,14.224596 18.9024565,14.6195469 C17.7420539,17.4689374 15.0213157,19.4736842 11.8566643,19.4736842 C9.76957208,19.4736842 7.87667034,18.6016531 6.49530003,17.1909283 L5.97717629,17.9987082 C5.84671145,18.2022082 5.60301593,18.2926744 5.37746494,18.2214217 C5.15225926,18.150169 4.99868996,17.9340012 5.00000842,17.6895667 L5.0195342,13.3928155 C5.02050735,13.2055981 5.11264265,13.0315696 5.26423426,12.9301616 C5.41613979,12.8288838 5.6070027,12.8141969 5.77181032,12.8909205 L9.53086788,14.6452734 C9.7461851,14.7456394 9.87228647,14.9811835 9.84061201,15.223892 C9.80890617,15.4667959 9.62727248,15.6589958 9.39381073,15.6965434 L8.71022015,15.8062556 C9.58235064,16.5059842 10.6701437,16.9278665 11.8566957,16.9278665 C14.0094598,16.9278665 15.8560898,15.5599324 16.641453,13.6189157 C16.8316567,13.148381 17.2758211,12.8421053 17.7675442,12.8421053 C18.1809759,12.8421053 18.5667198,13.0575892 18.7949391,13.4150575 Z" fill="#FFFFFF" fill-rule="nonzero"></path>
            <rect id="Rectangle-Copy-59" transform="translate(12.000000, 12.000000) rotate(90.000000) translate(-12.000000, -12.000000) " x="0" y="0" width="24" height="24"></rect>
        </g>
    </g>
</svg>