<?xml version="1.0" encoding="UTF-8"?>
<svg width="24px" height="24px" viewBox="0 0 24 24" version="1.1" xmlns="http://www.w3.org/2000/svg" xmlns:xlink="http://www.w3.org/1999/xlink">
    <!-- Generator: Sketch 54.1 (76490) - https://sketchapp.com -->
    <title>btn_fav@</title>
    <desc>Created with Sketch.</desc>
    <g id="btn_fav" stroke="none" stroke-width="1" fill="none" fill-rule="evenodd">
        <g>
            <rect id="Rectangle-Copy" x="0" y="0" width="24" height="24"></rect>
            <g id="favorite-heart-outline-button" transform="translate(0.000000, 1.000000)" fill="#9EA3A8" fill-rule="nonzero">
                <path d="M17.4,1.64445763e-16 C15.36,1.64445763e-16 13.32,0.944262295 12,2.47868852 C10.68,0.944262295 8.64,0 6.6,0 C2.88,1.64445763e-16 0,2.83278689 0,6.49180328 C0,10.9770492 4.08,14.6360656 10.32,20.0655738 L12,21.6 L13.68,20.0655738 C19.8,14.5180328 24,10.8590164 24,6.49180328 C24,2.83278689 21.12,1.64445763e-16 17.4,1.64445763e-16 Z M12.12,18.4131148 L12,18.4131148 L11.88,18.295082 C6.12,13.2196258 2.4,9.9147541 2.4,6.49180328 C2.4,4.13114754 4.2,2.36065574 6.6,2.36065574 C8.4,2.36065574 10.2,3.54098361 10.92,5.19344262 L13.2,5.19344262 C13.8,3.54098361 15.6,2.36065574 17.4,2.36065574 C19.8,2.36065574 21.6,4.13114754 21.6,6.49180328 C21.6,9.9147541 17.88,13.2196258 12.12,18.4131148 Z" id="Shape"></path>
            </g>
        </g>
    </g>
</svg>