<svg width="16" height="16" viewBox="0 0 16 16" fill="none" xmlns="http://www.w3.org/2000/svg">
<path fill-rule="evenodd" clip-rule="evenodd" d="M6.28557 13.0415C5.97054 13.0415 5.71415 12.8217 5.71415 12.5517C5.71415 12.2811 5.45834 12.0619 5.14272 12.0619C4.82709 12.0619 4.57129 12.2811 4.57129 12.5517C4.57129 13.1921 5.05194 13.7378 5.72025 13.9385V14.3673C5.72025 14.6379 5.97605 14.8571 6.29168 14.8571C6.6073 14.8571 6.8631 14.6379 6.8631 14.3673V13.9349C7.52501 13.7314 7.99986 13.1883 7.99986 12.5517C7.99986 11.7415 7.23081 11.0823 6.28557 11.0823C5.97054 11.0823 5.71415 10.8625 5.71415 10.5925C5.71415 10.3223 5.97054 10.1027 6.28557 10.1027C6.6006 10.1027 6.857 10.3223 6.857 10.5925C6.857 10.863 7.11281 11.0823 7.42843 11.0823C7.74406 11.0823 7.99986 10.863 7.99986 10.5925C7.99986 9.95587 7.52501 9.41276 6.8631 9.20906V8.4898C6.8631 8.21926 6.6073 8 6.29168 8C5.97605 8 5.72025 8.21926 5.72025 8.4898V9.20548C5.05194 9.40625 4.57129 9.95191 4.57129 10.5925C4.57129 11.4027 5.34034 12.0619 6.28557 12.0619C6.6006 12.0619 6.857 12.2815 6.857 12.5517C6.857 12.8217 6.6006 13.0415 6.28557 13.0415V13.0415Z" fill="#299F9A"/>
<path fill-rule="evenodd" clip-rule="evenodd" d="M6.125 16C4.22534 16 2.88611 15.7567 1.91064 15.2345C0.642822 14.5557 0 13.3939 0 11.7812C0 9.44678 1.32178 7.29089 3.20251 6.15576C2.97961 5.90686 2.84375 5.57837 2.84375 5.21875C2.84375 4.65857 3.1731 4.17395 3.64832 3.948L2.86682 1.55164C2.82031 1.40881 2.84497 1.25244 2.93311 1.13098C3.02136 1.0094 3.16235 0.9375 3.3125 0.9375H4.79907C4.99255 0.391846 5.51379 0 6.125 0C6.73608 0 7.25708 0.391846 7.45068 0.9375H8.9375C9.08765 0.9375 9.22864 1.0094 9.31689 1.13098C9.40503 1.25244 9.42969 1.40881 9.38318 1.55164L8.60168 3.948C9.0769 4.17395 9.40625 4.65857 9.40625 5.21875C9.40625 5.57812 9.27051 5.90637 9.04797 6.15515C9.6554 6.52161 10.2067 6.99939 10.6771 7.56921C10.7217 7.56482 10.7668 7.5625 10.8125 7.5625H14.5938C15.3691 7.5625 16 8.19336 16 8.96875C16 9.32861 15.864 9.65723 15.6407 9.90625C15.8639 10.1553 16 10.4839 16 10.8438C16 11.2036 15.864 11.5322 15.6407 11.7812C15.8639 12.0303 16 12.3589 16 12.7188C16 13.0786 15.864 13.4072 15.6407 13.6562C15.8639 13.9053 16 14.2339 16 14.5938C16 15.3691 15.3691 16 14.5938 16H10.8125C10.3818 16 9.99597 15.8052 9.73779 15.4993C8.83398 15.8398 7.67065 16 6.125 16ZM14.5938 11.3125C14.8522 11.3125 15.0625 11.1022 15.0625 10.8438C15.0625 10.5853 14.8522 10.375 14.5938 10.375H10.8125C10.5541 10.375 10.3438 10.5853 10.3438 10.8438C10.3438 11.1022 10.5541 11.3125 10.8125 11.3125H14.5938ZM15.0625 12.7188C15.0625 12.9772 14.8522 13.1875 14.5938 13.1875H10.8125C10.5541 13.1875 10.3438 12.9772 10.3438 12.7188C10.3438 12.4603 10.5541 12.25 10.8125 12.25H14.5938C14.8522 12.25 15.0625 12.4603 15.0625 12.7188ZM10.8125 15.0625H14.5938C14.8522 15.0625 15.0625 14.8522 15.0625 14.5938C15.0625 14.3353 14.8522 14.125 14.5938 14.125H10.8125C10.5541 14.125 10.3438 14.3353 10.3438 14.5938C10.3438 14.8522 10.5541 15.0625 10.8125 15.0625ZM15.0625 8.96875C15.0625 9.22717 14.8522 9.4375 14.5938 9.4375H10.8125C10.5541 9.4375 10.3438 9.22717 10.3438 8.96875C10.3438 8.71033 10.5541 8.5 10.8125 8.5H14.5938C14.8522 8.5 15.0625 8.71033 15.0625 8.96875ZM4.26355 5.6875H7.98657L7.9908 5.68745L7.99854 5.6875H8C8.25842 5.6875 8.46875 5.47717 8.46875 5.21875C8.46875 4.96082 8.25928 4.75085 8.00146 4.75012H8.00012L7.9967 4.75H4.25317L4.24988 4.75012H4.24854C3.99072 4.75085 3.78125 4.96082 3.78125 5.21875C3.78125 5.47717 3.99158 5.6875 4.25 5.6875H4.2511L4.25525 5.68747L4.26355 5.6875ZM5.1875 1.875C5.44641 1.875 5.65625 1.66516 5.65625 1.40625C5.65625 1.14783 5.86658 0.9375 6.125 0.9375C6.38342 0.9375 6.59375 1.14783 6.59375 1.40625V2.34375C6.59375 2.60266 6.80359 2.8125 7.0625 2.8125C7.32141 2.8125 7.53125 2.60266 7.53125 2.34375V1.875H8.29163L7.65979 3.8125H4.59021L3.95837 1.875H5.1875ZM7.90674 6.625H4.34143C2.33301 7.46338 0.9375 9.57031 0.9375 11.7812C0.9375 13.0563 1.38733 13.8909 2.35315 14.408C3.18713 14.8545 4.38574 15.0625 6.125 15.0625C7.55786 15.0625 8.61401 14.9219 9.40698 14.6224C9.4069 14.6193 9.40679 14.6161 9.40669 14.613C9.40647 14.6066 9.40625 14.6002 9.40625 14.5938C9.40625 14.2339 9.54236 13.9053 9.7655 13.6562C9.54236 13.4072 9.40625 13.0786 9.40625 12.7188C9.40625 12.3589 9.54236 12.0303 9.7655 11.7812C9.54236 11.5322 9.40625 11.2036 9.40625 10.8438C9.40625 10.4839 9.54236 10.1553 9.7655 9.90625C9.54236 9.65723 9.40625 9.32861 9.40625 8.96875C9.40625 8.58911 9.55774 8.24438 9.8031 7.99109C9.26355 7.38843 8.61658 6.92151 7.90674 6.625Z" fill="#299F9A"/>
</svg>
