<?xml version="1.0" encoding="UTF-8"?>
<svg width="24px" height="24px" viewBox="0 0 24 24" version="1.1" xmlns="http://www.w3.org/2000/svg" xmlns:xlink="http://www.w3.org/1999/xlink">
    <!-- Generator: Sketch 54.1 (76490) - https://sketchapp.com -->
    <title>i_dieuhanh@</title>
    <desc>Created with Sketch.</desc>
    <g id="i_dieuhanh" stroke="none" stroke-width="1" fill="none" fill-rule="evenodd">
        <g>
            <rect id="Rectangle-Copy-13" transform="translate(12.000000, 12.000000) rotate(90.000000) translate(-12.000000, -12.000000) " x="0" y="0" width="24" height="24"></rect>
            <path d="M12.2852673,3 C8.30652808,3 5.03843761,6.26039409 5.0008939,10.2691626 L5.0008939,10.2691626 L5,10.3250246 L5.0017878,10.3640394 C5.0420132,11.6231527 6.05479944,12.6100493 7.309832,12.6100493 L7.309832,12.6100493 L8.20372983,12.6100493 C8.55056219,13.3247291 9.07617412,13.9338916 9.73229513,14.3807882 L9.73229513,14.3807882 C9.62949688,14.4260099 9.52759252,14.4730049 9.43015766,14.5208867 L9.43015766,14.5208867 C9.4131736,14.5279803 9.39618954,14.5350739 9.37831158,14.5448276 L9.37831158,14.5448276 C9.35864583,14.5545813 9.33987398,14.564335 9.33987398,14.5661084 L9.33987398,14.5661084 C7.16412665,15.6824631 5.81255313,17.8983251 5.81255313,20.3473892 L5.81255313,20.3473892 C5.81255313,20.7073892 6.10485772,21 6.46331075,21 L6.46331075,21 L18.0669985,21 C18.4254515,21 18.7177561,20.7073892 18.7177561,20.3473892 L18.7177561,20.3473892 C18.7177561,17.8983251 17.3679704,15.6833498 15.2011621,14.5723153 L15.2011621,14.5723153 C15.1850719,14.5625616 15.1689817,14.5528079 15.1537855,14.5457143 L15.1537855,14.5457143 C15.1350136,14.5350739 15.1153479,14.5270936 15.1090906,14.5253202 L15.1090906,14.5253202 C15.0080801,14.475665 14.904388,14.4277833 14.7980141,14.3816749 L14.7980141,14.3816749 C15.4541352,13.9338916 15.9797471,13.3247291 16.3265794,12.6100493 L16.3265794,12.6100493 L17.2642783,12.6100493 C17.6120045,12.6100493 17.9570491,12.5293596 18.2708072,12.3768473 L18.2708072,12.3768473 L18.2708072,13.2085714 L17.2615966,13.2085714 C16.9031435,13.2085714 16.6117328,13.502069 16.6117328,13.8611823 L16.6117328,13.8611823 C16.6117328,14.2211823 16.9031435,14.5137931 17.2615966,14.5137931 L17.2615966,14.5137931 L18.9215648,14.5137931 C19.279124,14.5137931 19.5714286,14.2211823 19.5714286,13.8611823 L19.5714286,13.8611823 L19.5714286,10.3241379 L19.5705347,10.2540887 C19.532991,6.25418719 16.2649005,3 12.2852673,3 Z M12.2852673,4.30433498 C14.6970037,4.30433498 16.9049313,5.79931034 17.8220705,8.0382266 L17.8220705,8.0382266 C17.6397154,7.99211823 17.4511029,7.96906404 17.2615966,7.96906404 L17.2615966,7.96906404 L15.9305827,7.96906404 C15.0804859,6.7853202 13.7128222,6.07950739 12.2647077,6.07950739 L12.2647077,6.07950739 C10.8174871,6.07950739 9.44982341,6.7853202 8.59972657,7.96906404 L8.59972657,7.96906404 L7.30536251,7.96906404 C7.11853786,7.96906404 6.93171322,7.99300493 6.74935806,8.0382266 L6.74935806,8.0382266 C7.66649724,5.79931034 9.87353098,4.30433498 12.2852673,4.30433498 L12.2852673,4.30433498 Z M9.04756939,10.622069 C9.04756939,8.83625616 10.4912144,7.38384236 12.2647077,7.38384236 L12.2647077,7.38384236 C14.0390949,7.38384236 15.4827399,8.83625616 15.4827399,10.622069 L15.4827399,10.622069 C15.4827399,12.4078818 14.0390949,13.8602956 12.2647077,13.8602956 L12.2647077,13.8602956 C10.4912144,13.8602956 9.04756939,12.4078818 9.04756939,10.622069 L9.04756939,10.622069 Z M16.7833612,10.622069 C16.7833612,10.1618719 16.715425,9.70965517 16.5804464,9.27428571 L16.5804464,9.27428571 L17.2615966,9.27428571 C17.8015109,9.27428571 18.2538232,9.71497537 18.2699133,10.2549754 L18.2699133,10.2549754 L18.2699133,10.300197 C18.2645499,10.8543842 17.8122376,11.3057143 17.2615966,11.3057143 L17.2615966,11.3057143 L16.7324091,11.3057143 C16.7663772,11.0787192 16.7833612,10.8499507 16.7833612,10.622069 L16.7833612,10.622069 Z M6.30151524,10.3028571 L6.30240914,10.2594089 C6.3184993,9.70699507 6.76097873,9.27428571 7.309832,9.27428571 L7.309832,9.27428571 L7.94986285,9.27428571 C7.81399038,9.71142857 7.74605414,10.164532 7.74694804,10.622069 L7.74694804,10.622069 C7.74694804,10.8499507 7.7639321,11.0787192 7.79790022,11.3057143 L7.79790022,11.3057143 L7.309832,11.3057143 C6.75919093,11.3057143 6.30687863,10.8543842 6.30151524,10.3028571 L6.30151524,10.3028571 Z M10.5600445,15.4563547 C11.6622205,15.0653202 12.8680887,15.0653202 13.9702648,15.4563547 L13.9702648,15.4563547 L12.2647077,18.8861084 L10.5600445,15.4563547 Z M15.131438,16.0424631 C16.356972,16.8733005 17.1909786,18.2281773 17.3769094,19.6947783 L17.3769094,19.6947783 L13.3159315,19.6947783 L15.131438,16.0424631 Z M9.39887123,16.0424631 L11.2143777,19.6947783 L7.15339988,19.6947783 C7.33933063,18.2281773 8.17333731,16.8733005 9.39887123,16.0424631 L9.39887123,16.0424631 Z" fill="#299F9A"></path>
        </g>
    </g>
</svg>