<?xml version="1.0" encoding="UTF-8"?>
<svg width="24px" height="24px" viewBox="0 0 24 24" version="1.1" xmlns="http://www.w3.org/2000/svg" xmlns:xlink="http://www.w3.org/1999/xlink">
    <!-- Generator: Sketch 54.1 (76490) - https://sketchapp.com -->
    <title>btn_home@</title>
    <desc>Created with Sketch.</desc>
    <g id="btn_home" stroke="none" stroke-width="1" fill="none" fill-rule="evenodd">
        <g>
            <rect id="Rectangle-Copy-9" transform="translate(12.000000, 12.000000) rotate(90.000000) translate(-12.000000, -12.000000) " x="0" y="0" width="24" height="24"></rect>
            <g id="i_trangchu" transform="translate(3.000000, 5.000000)" fill="#299F9A" fill-rule="nonzero">
                <path d="M17.8714286,6.96212716 L16.3846154,5.7311617 L16.3846154,2.40188383 C16.3846154,2.25510204 16.2659341,2.13500785 16.1208791,2.13500785 L15.0659341,2.13500785 C14.9208791,2.13500785 14.8021978,2.25510204 14.8021978,2.40188383 L14.8021978,4.42013344 L9.83736264,0.303571429 C9.35274725,-0.100078493 8.65054945,-0.100078493 8.16593407,0.303571429 L0.128571429,6.96212716 C0.0164835165,7.05553375 -5.75928194e-16,7.22233124 0.0923076923,7.33908948 L0.761538462,8.16640502 C0.853846154,8.27982732 1.01868132,8.29650706 1.13406593,8.20310047 L1.61868132,7.8027865 L1.61868132,14.411303 C1.61868132,14.7048666 1.85604396,14.9450549 2.14615385,14.9450549 L7.68461538,14.9450549 C7.82967033,14.9450549 7.94835165,14.8249608 7.94835165,14.678179 L7.94835165,10.4081633 L10.0582418,10.4081633 L10.0582418,14.678179 C10.0582418,14.8249608 10.1769231,14.9450549 10.321978,14.9450549 L15.8604396,14.9450549 C16.1505495,14.9450549 16.3879121,14.7048666 16.3879121,14.411303 L16.3879121,7.79945055 L16.8725275,8.19976452 C16.9846154,8.29317111 17.1527473,8.27649137 17.2450549,8.16306907 L17.9142857,7.33575353 C18,7.22233124 17.9835165,7.05553375 17.8714286,6.96212716 Z M14.8021978,13.3437991 L11.6373626,13.3437991 L11.6373626,9.07378336 C11.6373626,8.92700157 11.5186813,8.80690738 11.3736264,8.80690738 L6.62637363,8.80690738 C6.48131868,8.80690738 6.36263736,8.92700157 6.36263736,9.07378336 L6.36263736,13.3437991 L3.1978022,13.3437991 L3.1978022,6.48842229 L8.83186813,1.81809262 C8.92747253,1.73802983 9.06923077,1.73802983 9.16483516,1.81809262 L14.7989011,6.48842229 L14.7989011,13.3437991 L14.8021978,13.3437991 Z" id="Shape"></path>
            </g>
        </g>
    </g>
</svg>