<?xml version="1.0" encoding="UTF-8"?>
<svg width="24px" height="24px" viewBox="0 0 24 24" version="1.1" xmlns="http://www.w3.org/2000/svg" xmlns:xlink="http://www.w3.org/1999/xlink">
    <!-- Generator: Sketch 54.1 (76490) - https://sketchapp.com -->
    <title>i_danhba@</title>
    <desc>Created with Sketch.</desc>
    <g id="i_danhba" stroke="none" stroke-width="1" fill="none" fill-rule="evenodd">
        <g>
            <rect id="Rectangle-Copy-18" transform="translate(12.000000, 12.000000) rotate(90.000000) translate(-12.000000, -12.000000) " x="0" y="0" width="24" height="24"></rect>
            <path d="M19.2258065,3 C19.6533677,3 20,3.34663226 20,3.77419355 L20,19.2580645 C20,19.6856258 19.6533677,20.0322581 19.2258065,20.0322581 L8.90322581,20.0322581 C7.05336774,20.0322581 5.5483871,18.5272774 5.5483871,16.6774194 L5.5483871,15.9032258 L4.77419355,15.9032258 C4.34663226,15.9032258 4,15.5565935 4,15.1290323 C4,14.701471 4.34663226,14.3548387 4.77419355,14.3548387 L5.5483871,14.3548387 L5.5483871,12.2903226 L4.77419355,12.2903226 C4.34663226,12.2903226 4,11.9436903 4,11.516129 C4,11.0885677 4.34663226,10.7419355 4.77419355,10.7419355 L5.5483871,10.7419355 L5.5483871,8.67741935 L4.77419355,8.67741935 C4.34663226,8.67741935 4,8.3307871 4,7.90322581 C4,7.47566452 4.34663226,7.12903226 4.77419355,7.12903226 L5.5483871,7.12903226 L5.5483871,6.35483871 C5.5483871,4.50498065 7.05336774,3 8.90322581,3 L19.2258065,3 Z M18.4516129,18.483871 L18.4516129,4.5483871 L8.90322581,4.5483871 C7.90714839,4.5483871 7.09677419,5.35876129 7.09677419,6.35483871 L7.09677419,16.6774194 C7.09677419,17.6734968 7.90714839,18.483871 8.90322581,18.483871 L18.4516129,18.483871 Z M12.7741935,12.0322065 C11.4914677,12.0322065 10.4516129,10.9923517 10.4516129,9.70962581 C10.4516129,8.42689994 11.4914677,7.38704516 12.7741935,7.38704516 C14.0569194,7.38704516 15.0967742,8.42689994 15.0967742,9.70962581 C15.0967742,10.9923517 14.0569194,12.0322065 12.7741935,12.0322065 Z M12.7741935,12.0322065 C14.7695484,12.0322065 16.3870968,13.6496516 16.3870968,15.6451097 L9.16129032,15.6451097 C9.16129032,13.6496516 10.7788387,12.0322065 12.7741935,12.0322065 Z" fill="#299F9A" fill-rule="nonzero"></path>
        </g>
    </g>
</svg>