<?xml version="1.0" encoding="UTF-8"?>
<svg width="24px" height="24px" viewBox="0 0 24 24" version="1.1" xmlns="http://www.w3.org/2000/svg" xmlns:xlink="http://www.w3.org/1999/xlink">
    <!-- Generator: Sketch 54.1 (76490) - https://sketchapp.com -->
    <title>i_phieuguitrongnuoc@</title>
    <desc>Created with Sketch.</desc>
    <g id="i_phieuguitrongnuoc" stroke="none" stroke-width="1" fill="none" fill-rule="evenodd">
        <g>
            <rect id="Rectangle-Copy-14" transform="translate(12.000000, 12.000000) rotate(90.000000) translate(-12.000000, -12.000000) " x="0" y="0" width="24" height="24"></rect>
            <g transform="translate(4.000000, 4.000000)" fill="#299F9A" fill-rule="nonzero" id="Shape" stroke="#299F9A" stroke-width="0.2">
                <path d="M14.2499869,7.5 C13.8355033,7.5 13.4999739,7.836 13.4999739,8.25001307 L13.4999739,14.5 L1.49997386,14.5 L1.49997386,2.5 L7.74996078,2.5 C8.16444444,2.5 8.49997386,2.164 8.49997386,1.74998693 C8.49997386,1.33597386 8.16449673,1 7.75001307,1 L1,1 C0.448,1 0,1.44750327 0,2 L0,15 C0,15.5524967 0.448,16 1,16 L14,16 C14.552,16 15,15.5524967 15,15 L15,8.24998693 C15,7.836 14.6644967,7.5 14.2499869,7.5 Z M15.8254902,2.3254902 L13.6739869,0.173986928 C13.5570196,0.0569934641 13.4035033,0 13.2499869,0 C13.0964706,0 12.9429804,0.0569934641 12.8259869,0.174509804 L4.49997386,8.5 L4.49997386,11.5 L7.49997386,11.5 L15.8254641,3.1745098 C15.9429542,3.05699346 15.9999739,2.90350327 15.9999739,2.75001307 C16,2.596 15.9429804,2.44300654 15.8254902,2.3254902 Z M7,10 L6,10 L6,9 L13.2499869,1.75001307 L14.2499869,2.75001307 L7,10 Z"></path>
            </g>
        </g>
    </g>
</svg>