<?xml version="1.0" encoding="UTF-8"?>
<svg width="24px" height="24px" viewBox="0 0 24 24" version="1.1" xmlns="http://www.w3.org/2000/svg" xmlns:xlink="http://www.w3.org/1999/xlink">
    <!-- Generator: Sketch 54.1 (76490) - https://sketchapp.com -->
    <title>i_khaithacden@</title>
    <desc>Created with Sketch.</desc>
    <g id="i_khaithacden" stroke="none" stroke-width="1" fill="none" fill-rule="evenodd">
        <g>
            <rect id="Rectangle-Copy-11" transform="translate(12.000000, 12.000000) rotate(90.000000) translate(-12.000000, -12.000000) " x="0" y="0" width="24" height="24"></rect>
            <g transform="translate(4.000000, 6.000000)" fill="#299F9A" fill-rule="nonzero" id="Shape">
                <path d="M14.8,5.6 L12,5.6 L12,1.2 C12,0.5375 11.4625,0 10.8,0 L5.2,0 C4.5375,0 4,0.5375 4,1.2 L4,5.6 L1.2,5.6 C0.5375,5.6 0,6.1375 0,6.8 L0,11.6 C0,12.2625 0.5375,12.8 1.2,12.8 L14.8,12.8 C15.4625,12.8 16,12.2625 16,11.6 L16,6.8 C16,6.1375 15.4625,5.6 14.8,5.6 Z M5.2,1.2 L6.8,1.2 L6.8,3.4675 L8,2.935 L9.2,3.4675 L9.2,1.2 L10.8,1.2 L10.8,5.6 L5.2,5.6 L5.2,1.2 Z M7.4,11.6 L1.2,11.6 L1.2,6.8 L3.2,6.8 L3.2,9.0675 L4.4,8.535 L5.6,9.0675 L5.6,6.8 L7.4,6.8 L7.4,11.6 Z M14.8,11.6 L8.6,11.6 L8.6,6.8 L10.4,6.8 L10.4,9.0675 L11.6,8.535 L12.8,9.0675 L12.8,6.8 L14.8,6.8 L14.8,11.6 Z"></path>
            </g>
        </g>
    </g>
</svg>