<?xml version="1.0" encoding="UTF-8"?>
<svg width="24px" height="24px" viewBox="0 0 24 24" version="1.1" xmlns="http://www.w3.org/2000/svg" xmlns:xlink="http://www.w3.org/1999/xlink">
    <!-- Generator: Sketch 54.1 (76490) - https://sketchapp.com -->
    <title>i_khaithacdi@</title>
    <desc>Created with Sketch.</desc>
    <g id="i_khaithacdi" stroke="none" stroke-width="1" fill="none" fill-rule="evenodd">
        <g>
            <rect id="Rectangle-Copy-10" transform="translate(12.000000, 12.000000) rotate(90.000000) translate(-12.000000, -12.000000) " x="0" y="0" width="24" height="24"></rect>
            <path d="M20.55,15.78125 L20.1,15.78125 L20.1,12.3798828 C20.1,11.8232422 19.8834375,11.28125 19.5065625,10.8886719 L17.146875,8.43066406 C16.77,8.03808594 16.246875,7.8125 15.7153125,7.8125 L14.7,7.8125 L14.7,6.640625 C14.7,5.73535156 13.9940625,5 13.125,5 L4.575,5 C3.7059375,5 3,5.73535156 3,6.640625 L3,15.546875 C3,16.4521484 3.7059375,17.1875 4.575,17.1875 L4.8,17.1875 C4.8,18.7402344 6.009375,20 7.5,20 C8.990625,20 10.2,18.7402344 10.2,17.1875 L13.8,17.1875 C13.8,18.7402344 15.009375,20 16.5,20 C17.990625,20 19.2,18.7402344 19.2,17.1875 L20.55,17.1875 C20.7975,17.1875 21,16.9765625 21,16.71875 L21,16.25 C21,15.9921875 20.7975,15.78125 20.55,15.78125 Z M7.5,18.59375 C6.7546875,18.59375 6.15,17.9638672 6.15,17.1875 C6.15,16.4111328 6.7546875,15.78125 7.5,15.78125 C8.2453125,15.78125 8.85,16.4111328 8.85,17.1875 C8.85,17.9638672 8.2453125,18.59375 7.5,18.59375 Z M13.35,15.78125 L9.8259375,15.78125 C9.3590625,14.9433594 8.4984375,14.375 7.5,14.375 C6.5015625,14.375 5.6409375,14.9433594 5.1740625,15.78125 L4.575,15.78125 C4.45125,15.78125 4.35,15.6757812 4.35,15.546875 L4.35,6.640625 C4.35,6.51171875 4.45125,6.40625 4.575,6.40625 L13.125,6.40625 C13.24875,6.40625 13.35,6.51171875 13.35,6.640625 L13.35,15.78125 Z M14.7,9.21875 L15.7153125,9.21875 C15.8925,9.21875 16.066875,9.29492188 16.1934375,9.42382813 L18.2465625,11.5625 L14.7,11.5625 L14.7,9.21875 Z M16.5,18.59375 C15.7546875,18.59375 15.15,17.9638672 15.15,17.1875 C15.15,16.4111328 15.7546875,15.78125 16.5,15.78125 C17.2453125,15.78125 17.85,16.4111328 17.85,17.1875 C17.85,17.9638672 17.2453125,18.59375 16.5,18.59375 Z M18.75,15.6376953 C18.26625,14.8789063 17.439375,14.375 16.5,14.375 C15.8053125,14.375 15.178125,14.65625 14.7,15.1044922 L14.7,12.96875 L18.75,12.96875 L18.75,15.6376953 Z" fill="#299F9A" fill-rule="nonzero"></path>
        </g>
    </g>
</svg>