<svg width="167" height="108" viewBox="0 0 167 108" fill="none" xmlns="http://www.w3.org/2000/svg">
<line x1="26.5" y1="99.5" x2="74.5" y2="99.5" stroke="#ADAEB5" stroke-width="3" stroke-linecap="round"/>
<line x1="44.5" y1="106.5" x2="84.5" y2="106.5" stroke="#ADAEB5" stroke-width="3" stroke-linecap="round"/>
<line x1="80.5" y1="99.5" x2="91.5" y2="99.5" stroke="#ADAEB5" stroke-width="3" stroke-linecap="round"/>
<line x1="14.5" y1="99.5" x2="20.5" y2="99.5" stroke="#ADAEB5" stroke-width="3" stroke-linecap="round"/>
<line x1="1.5" y1="-1.5" x2="41.5" y2="-1.5" transform="matrix(-1 0 0 1 167 61)" stroke="#ADAEB5" stroke-width="3" stroke-linecap="round"/>
<line x1="1.5" y1="-1.5" x2="12.5" y2="-1.5" transform="matrix(-1 0 0 1 131 54)" stroke="#ADAEB5" stroke-width="3" stroke-linecap="round"/>
<line x1="1.5" y1="-1.5" x2="7.5" y2="-1.5" transform="matrix(-1 8.74229e-08 8.74229e-08 1 142 54)" stroke="#ADAEB5" stroke-width="3" stroke-linecap="round"/>
<line x1="1.5" y1="-1.5" x2="12.5" y2="-1.5" transform="matrix(-1 0 0 1 14 74)" stroke="#ADAEB5" stroke-width="3" stroke-linecap="round"/>
<line x1="1.5" y1="-1.5" x2="7.5" y2="-1.5" transform="matrix(-1 8.74229e-08 8.74229e-08 1 25 74)" stroke="#ADAEB5" stroke-width="3" stroke-linecap="round"/>
<line x1="1" y1="-1" x2="7" y2="-1" transform="matrix(-1 0 0 1 26 40)" stroke="#ADAEB5" stroke-width="2" stroke-linecap="round"/>
<line x1="1" y1="-1" x2="7" y2="-1" transform="matrix(1.19249e-08 -1 -1 -1.19249e-08 21 43)" stroke="#ADAEB5" stroke-width="2" stroke-linecap="round"/>
<line x1="1" y1="-1" x2="7" y2="-1" transform="matrix(-1 0 0 1 101 13)" stroke="#ADAEB5" stroke-width="2" stroke-linecap="round"/>
<line x1="1" y1="-1" x2="7" y2="-1" transform="matrix(1.19249e-08 -1 -1 -1.19249e-08 96 16)" stroke="#ADAEB5" stroke-width="2" stroke-linecap="round"/>
<line x1="1" y1="-1" x2="7" y2="-1" transform="matrix(-1 0 0 1 139 77)" stroke="#ADAEB5" stroke-width="2" stroke-linecap="round"/>
<line x1="1" y1="-1" x2="7" y2="-1" transform="matrix(1.19249e-08 -1 -1 -1.19249e-08 134 80)" stroke="#ADAEB5" stroke-width="2" stroke-linecap="round"/>
<g clip-path="url(#clip0)">
<path d="M60.3045 15.3232C60.4925 16.084 61.2274 16.5778 62.0029 16.4643C62.9269 16.3411 63.8436 16.1475 64.7734 16.0756L67.5704 15.9333V13L64.5065 13.154C63.4886 13.2347 62.4825 13.4473 61.4705 13.5793C61.0765 13.6403 60.726 13.8637 60.5044 14.1951C60.2828 14.5266 60.2103 14.9358 60.3045 15.3232Z" fill="#ADAEB5"/>
<path d="M67.5704 80.1406V77.2073C64.3156 77.1639 61.0849 76.6405 57.9828 75.6541C54.8869 74.6414 51.978 73.1277 49.372 71.1734C41.3911 65.2558 36.7732 55.8371 36.9827 45.9038C37.1923 35.9706 42.2032 26.755 50.4265 21.1792L51.6219 20.4458C52.2848 20.0052 52.4974 19.129 52.1103 18.4336C51.9163 18.0909 51.5892 17.8439 51.2066 17.7511C50.824 17.6583 50.42 17.728 50.0907 17.9437L48.7824 18.7445C39.7437 24.8346 34.2306 34.9393 34.0016 45.8359C33.7725 56.7325 38.8562 67.06 47.6311 73.5245C50.4884 75.6648 53.6764 77.3235 57.0691 78.4349C60.4657 79.5207 64.0048 80.0956 67.5704 80.1406Z" fill="#ADAEB5"/>
<path d="M56.6276 17.9865C56.9776 17.8495 57.2616 17.5833 57.4211 17.2429L57.5105 16.976C57.5351 16.8802 57.5474 16.7816 57.5472 16.6827C57.5612 16.5898 57.5612 16.4954 57.5472 16.4025C57.5329 16.3033 57.5114 16.2053 57.4827 16.1092C57.3596 15.7431 57.0957 15.4411 56.7493 15.2703C56.5673 15.1936 56.3719 15.1537 56.1744 15.1529C55.5677 15.1364 55.0055 15.4703 54.7297 16.0109C54.6582 16.1944 54.6252 16.3906 54.6329 16.5873C54.634 16.7809 54.6734 16.9723 54.7488 17.1505C54.9074 17.4984 55.1882 17.7761 55.5379 17.9308C55.8818 18.0831 56.2699 18.103 56.6276 17.9865Z" fill="#ADAEB5"/>
<path d="M67.5704 80.1411C66.7604 80.1411 66.1038 79.4844 66.1038 78.6744C66.1038 77.8644 66.7604 77.2077 67.5704 77.2077C84.4909 77.2077 98.2076 63.491 98.2076 46.5705C98.2076 29.6501 84.4909 15.9333 67.5704 15.9333C66.7604 15.9333 66.1038 15.2767 66.1038 14.4667C66.1038 13.6566 66.7604 13 67.5704 13C86.1109 13 101.141 28.03 101.141 46.5705C101.141 65.111 86.1109 80.1411 67.5704 80.1411Z" fill="#ADAEB5"/>
<path d="M67.5703 74.2739C52.2699 74.2739 39.8665 61.8705 39.8665 46.5701C39.8665 31.2697 52.2699 18.8662 67.5703 18.8662C82.8708 18.8662 95.2742 31.2697 95.2742 46.5701C95.2564 61.8631 82.8634 74.2562 67.5703 74.2739ZM67.5703 21.7995C53.8899 21.7995 42.7998 32.8897 42.7998 46.5701C42.7998 60.2505 53.8899 71.3406 67.5703 71.3406C81.2507 71.3406 92.3409 60.2505 92.3409 46.5701C92.3255 32.8961 81.2443 21.8149 67.5703 21.7995Z" fill="#ADAEB5"/>
<path d="M117.244 101C112.572 101 104.984 96.4283 97.907 89.3502C95.3855 86.8571 93.0918 84.1438 91.0533 81.2424C90.5924 80.5758 90.7591 79.6617 91.4258 79.2008C92.0924 78.7399 93.0065 78.9067 93.4674 79.5734C95.4089 82.328 97.59 84.9057 99.9853 87.2763C107.395 94.6932 114.125 98.0666 117.244 98.0666C117.751 98.1709 118.277 98.0137 118.644 97.648C119.01 97.2824 119.169 96.757 119.067 96.2494C119.067 93.1327 115.693 86.4007 108.276 78.9808C105.906 76.5856 103.328 74.4045 100.573 72.463C99.942 71.99 99.7978 71.1024 100.247 70.454C100.696 69.8055 101.578 69.6284 102.242 70.0532C105.144 72.0928 107.858 74.388 110.35 76.9114C117.433 83.9866 122 91.5839 122 96.2538C122.1 97.5408 121.632 98.8072 120.719 99.7198C119.806 100.633 118.539 101.1 117.252 101H117.244Z" fill="#ADAEB5"/>
<path d="M90.6616 82.3505C89.4913 82.3528 88.3678 81.8908 87.5376 81.0657L82.1535 75.6654C81.7728 75.2967 81.6207 74.7511 81.7556 74.2386C81.8906 73.726 82.2916 73.3261 82.8046 73.1926C83.3175 73.0591 83.8626 73.2128 84.2303 73.5945L89.613 78.9918C90.1043 79.4828 90.8727 79.5618 91.4536 79.181C91.5393 79.1254 91.6185 79.0605 91.6898 78.9874L99.9896 70.689C100.057 70.6224 100.117 70.5492 100.17 70.4705C100.557 69.8864 100.482 69.1111 99.9896 68.6122L94.5938 63.231C94.212 62.8633 94.0584 62.3183 94.1919 61.8053C94.3254 61.2923 94.7253 60.8913 95.2378 60.7564C95.7504 60.6214 96.2959 60.7735 96.6647 61.1542L102.062 66.5369C103.53 68.0135 103.768 70.3138 102.636 72.0604C102.471 72.3135 102.28 72.5485 102.066 72.7614L93.7622 81.0642C93.5447 81.2854 93.3037 81.4821 93.0435 81.6509C92.3344 82.1106 91.5067 82.3537 90.6616 82.3505Z" fill="#ADAEB5"/>
<circle cx="40" cy="84" r="2" stroke="#ADAEB5" stroke-width="2"/>
</g>
<circle cx="44" cy="5" r="4" stroke="#ADAEB5" stroke-width="2"/>
<defs>
<clipPath id="clip0">
<rect width="88" height="88" fill="white" transform="translate(34 13)"/>
</clipPath>
</defs>
</svg>
